<svg xmlns="http://www.w3.org/2000/svg" width="1024" height="1024" viewBox="0 0 1024 1024"><defs>
      <linearGradient id="indigo" x1="0" y1="0" x2="1" y2="1">
        <stop offset="0" stop-color="#6366F1"/><stop offset="1" stop-color="#8B5CF6"/></linearGradient>
      <linearGradient id="night" x1="0" y1="0" x2="1" y2="1">
        <stop offset="0" stop-color="#1E293B"/><stop offset="1" stop-color="#0F172A"/></linearGradient>
      <linearGradient id="ocean" x1="0" y1="0" x2="1" y2="1">
        <stop offset="0" stop-color="#0EA5E9"/><stop offset="1" stop-color="#4F46E5"/></linearGradient>
      <linearGradient id="slate" x1="0" y1="0" x2="1" y2="1">
        <stop offset="0" stop-color="#334155"/><stop offset="1" stop-color="#0F172A"/></linearGradient>
      <linearGradient id="sheen" x1="0" y1="0" x2="0" y2="1">
        <stop offset="0" stop-color="#ffffff" stop-opacity="0.18"/>
        <stop offset="0.5" stop-color="#ffffff" stop-opacity="0"/></linearGradient>
      <filter id="soft" x="-20%" y="-20%" width="140%" height="140%">
        <feDropShadow dx="0" dy="6" stdDeviation="10" flood-color="#000000" flood-opacity="0.28"/></filter>
      <filter id="glow" x="-40%" y="-40%" width="180%" height="180%">
        <feDropShadow dx="0" dy="0" stdDeviation="14" flood-color="#38BDF8" flood-opacity="0.9"/></filter>
    </defs><rect x="88" y="88" width="848" height="848" rx="190" ry="190" fill="url(#indigo)"/><rect x="88" y="88" width="848" height="424.0" rx="190" fill="url(#sheen)"/><g filter="url(#soft)"><g><rect x="132" y="238" width="139" height="608" rx="18" fill="#111827"/><circle cx="156" cy="268" r="7" fill="#FF5F57" opacity="0.76"/><circle cx="178" cy="268" r="7" fill="#FEBC2E" opacity="0.76"/><circle cx="200" cy="268" r="7" fill="#28C840" opacity="0.76"/><rect x="154" y="296" width="59" height="12" rx="6.0" fill="#86EFAC" opacity="0.72"/><rect x="184" y="326" width="51" height="12" rx="6.0" fill="#C4B5FD" opacity="0.72"/><rect x="154" y="356" width="63" height="12" rx="6.0" fill="#7DD3FC" opacity="0.72"/><rect x="184" y="386" width="33" height="12" rx="6.0" fill="#94A3B8" opacity="0.72"/><rect x="154" y="416" width="52" height="12" rx="6.0" fill="#FCD34D" opacity="0.72"/><rect x="154" y="446" width="88" height="12" rx="6.0" fill="#86EFAC" opacity="0.72"/></g><g><rect x="287" y="238" width="139" height="608" rx="18" fill="#111827"/><circle cx="311" cy="268" r="7" fill="#FF5F57" opacity="0.76"/><circle cx="333" cy="268" r="7" fill="#FEBC2E" opacity="0.76"/><circle cx="355" cy="268" r="7" fill="#28C840" opacity="0.76"/><rect x="309" y="296" width="85" height="12" rx="6.0" fill="#F9A8D4" opacity="0.72"/><rect x="327" y="326" width="48" height="12" rx="6.0" fill="#94A3B8" opacity="0.72"/><rect x="309" y="356" width="67" height="12" rx="6.0" fill="#FCD34D" opacity="0.72"/><rect x="339" y="386" width="49" height="12" rx="6.0" fill="#86EFAC" opacity="0.72"/><rect x="327" y="416" width="71" height="12" rx="6.0" fill="#7DD3FC" opacity="0.72"/><rect x="327" y="446" width="35" height="12" rx="6.0" fill="#7DD3FC" opacity="0.72"/></g><g><rect x="438.0" y="234.0" width="147" height="616" rx="22.0" fill="none" stroke="#38BDF8" stroke-width="8"/><rect x="442" y="238" width="139" height="608" rx="18" fill="#0B1220"/><circle cx="466" cy="268" r="7" fill="#FF5F57" opacity="1.09"/><circle cx="488" cy="268" r="7" fill="#FEBC2E" opacity="1.09"/><circle cx="510" cy="268" r="7" fill="#28C840" opacity="1.09"/><rect x="464" y="296" width="71" height="12" rx="6.0" fill="#FCD34D" opacity="1.03"/><rect x="464" y="326" width="64" height="12" rx="6.0" fill="#94A3B8" opacity="1.03"/><rect x="464" y="356" width="55" height="12" rx="6.0" fill="#F9A8D4" opacity="1.03"/><rect x="494" y="386" width="44" height="12" rx="6.0" fill="#7DD3FC" opacity="1.03"/><rect x="464" y="416" width="75" height="12" rx="6.0" fill="#C4B5FD" opacity="1.03"/><rect x="494" y="446" width="31" height="12" rx="6.0" fill="#86EFAC" opacity="1.03"/></g><g><rect x="597" y="238" width="139" height="608" rx="18" fill="#111827"/><circle cx="621" cy="268" r="7" fill="#FF5F57" opacity="0.76"/><circle cx="643" cy="268" r="7" fill="#FEBC2E" opacity="0.76"/><circle cx="665" cy="268" r="7" fill="#28C840" opacity="0.76"/><rect x="649" y="296" width="59" height="12" rx="6.0" fill="#94A3B8" opacity="0.72"/><rect x="619" y="326" width="72" height="12" rx="6.0" fill="#F9A8D4" opacity="0.72"/><rect x="619" y="356" width="70" height="12" rx="6.0" fill="#C4B5FD" opacity="0.72"/><rect x="637" y="386" width="67" height="12" rx="6.0" fill="#7DD3FC" opacity="0.72"/><rect x="649" y="416" width="25" height="12" rx="6.0" fill="#86EFAC" opacity="0.72"/><rect x="619" y="446" width="35" height="12" rx="6.0" fill="#7DD3FC" opacity="0.72"/></g><g><rect x="752" y="238" width="139" height="608" rx="18" fill="#111827"/><circle cx="776" cy="268" r="7" fill="#FF5F57" opacity="0.76"/><circle cx="798" cy="268" r="7" fill="#FEBC2E" opacity="0.76"/><circle cx="820" cy="268" r="7" fill="#28C840" opacity="0.76"/><rect x="774" y="296" width="82" height="12" rx="6.0" fill="#94A3B8" opacity="0.72"/><rect x="774" y="326" width="55" height="12" rx="6.0" fill="#7DD3FC" opacity="0.72"/><rect x="774" y="356" width="79" height="12" rx="6.0" fill="#7DD3FC" opacity="0.72"/><rect x="774" y="386" width="39" height="12" rx="6.0" fill="#86EFAC" opacity="0.72"/><rect x="774" y="416" width="37" height="12" rx="6.0" fill="#FCD34D" opacity="0.72"/><rect x="792" y="446" width="56" height="12" rx="6.0" fill="#86EFAC" opacity="0.72"/></g></g></svg>