<svg xmlns="http://www.w3.org/2000/svg" width="1024" height="1024" viewBox="0 0 1024 1024"><defs>
      <linearGradient id="indigo" x1="0" y1="0" x2="1" y2="1">
        <stop offset="0" stop-color="#6366F1"/><stop offset="1" stop-color="#8B5CF6"/></linearGradient>
      <linearGradient id="night" x1="0" y1="0" x2="1" y2="1">
        <stop offset="0" stop-color="#1E293B"/><stop offset="1" stop-color="#0F172A"/></linearGradient>
      <linearGradient id="ocean" x1="0" y1="0" x2="1" y2="1">
        <stop offset="0" stop-color="#0EA5E9"/><stop offset="1" stop-color="#4F46E5"/></linearGradient>
      <linearGradient id="slate" x1="0" y1="0" x2="1" y2="1">
        <stop offset="0" stop-color="#334155"/><stop offset="1" stop-color="#0F172A"/></linearGradient>
      <linearGradient id="sheen" x1="0" y1="0" x2="0" y2="1">
        <stop offset="0" stop-color="#ffffff" stop-opacity="0.18"/>
        <stop offset="0.5" stop-color="#ffffff" stop-opacity="0"/></linearGradient>
      <filter id="soft" x="-20%" y="-20%" width="140%" height="140%">
        <feDropShadow dx="0" dy="6" stdDeviation="10" flood-color="#000000" flood-opacity="0.28"/></filter>
      <filter id="glow" x="-40%" y="-40%" width="180%" height="180%">
        <feDropShadow dx="0" dy="0" stdDeviation="14" flood-color="#38BDF8" flood-opacity="0.9"/></filter>
    </defs><rect x="88" y="88" width="848" height="848" rx="190" ry="190" fill="url(#indigo)"/><rect x="88" y="88" width="848" height="424.0" rx="190" fill="url(#sheen)"/><g filter="url(#soft)"><rect x="128" y="208" width="137" height="608" rx="22" fill="#111827"/><rect x="150" y="248" width="93" height="26" rx="13" fill="#86EFAC"/><rect x="150" y="300" width="57" height="26" rx="13" fill="#94A3B8" opacity="0.85"/><rect x="285" y="208" width="137" height="608" rx="22" fill="#111827"/><rect x="307" y="248" width="93" height="26" rx="13" fill="#86EFAC"/><rect x="307" y="300" width="57" height="26" rx="13" fill="#94A3B8" opacity="0.85"/><rect x="437.0" y="202.0" width="149" height="620" rx="28.0" fill="none" stroke="#38BDF8" stroke-width="12"/><rect x="443" y="208" width="137" height="608" rx="22" fill="#0B1220"/><rect x="465" y="248" width="93" height="26" rx="13" fill="#7DD3FC"/><rect x="465" y="300" width="57" height="26" rx="13" fill="#FCD34D" opacity="0.85"/><rect x="600" y="208" width="137" height="608" rx="22" fill="#111827"/><rect x="622" y="248" width="93" height="26" rx="13" fill="#86EFAC"/><rect x="622" y="300" width="57" height="26" rx="13" fill="#94A3B8" opacity="0.85"/><rect x="758" y="208" width="137" height="608" rx="22" fill="#111827"/><rect x="780" y="248" width="93" height="26" rx="13" fill="#86EFAC"/><rect x="780" y="300" width="57" height="26" rx="13" fill="#94A3B8" opacity="0.85"/></g></svg>